<svg width="390" height="150" viewBox="0 0 390 150" fill="none" xmlns="http://www.w3.org/2000/svg">
<circle cx="5" cy="145" r="5" transform="rotate(-90 5 145)" fill="white"/>
<circle cx="5" cy="125" r="5" transform="rotate(-90 5 125)" fill="white"/>
<circle cx="5" cy="105" r="5" transform="rotate(-90 5 105)" fill="white"/>
<circle cx="5" cy="85" r="5" transform="rotate(-90 5 85)" fill="white"/>
<circle cx="5" cy="65" r="5" transform="rotate(-90 5 65)" fill="white"/>
<circle cx="5" cy="45" r="5" transform="rotate(-90 5 45)" fill="white"/>
<circle cx="5" cy="25" r="5" transform="rotate(-90 5 25)" fill="white"/>
<circle cx="5" cy="5" r="5" transform="rotate(-90 5 5)" fill="white"/>
<circle cx="25" cy="145" r="5" transform="rotate(-90 25 145)" fill="white"/>
<circle cx="25" cy="125" r="5" transform="rotate(-90 25 125)" fill="white"/>
<circle cx="25" cy="105" r="5" transform="rotate(-90 25 105)" fill="white"/>
<circle cx="25" cy="85" r="5" transform="rotate(-90 25 85)" fill="white"/>
<circle cx="25" cy="65" r="5" transform="rotate(-90 25 65)" fill="white"/>
<circle cx="25" cy="45" r="5" transform="rotate(-90 25 45)" fill="white"/>
<circle cx="25" cy="25" r="5" transform="rotate(-90 25 25)" fill="white"/>
<circle cx="25" cy="5" r="5" transform="rotate(-90 25 5)" fill="white"/>
<circle cx="45" cy="145" r="5" transform="rotate(-90 45 145)" fill="white"/>
<circle cx="45" cy="125" r="5" transform="rotate(-90 45 125)" fill="white"/>
<circle cx="45" cy="105" r="5" transform="rotate(-90 45 105)" fill="white"/>
<circle cx="45" cy="85" r="5" transform="rotate(-90 45 85)" fill="white"/>
<circle cx="45" cy="65" r="5" transform="rotate(-90 45 65)" fill="white"/>
<circle cx="45" cy="45" r="5" transform="rotate(-90 45 45)" fill="white"/>
<circle cx="45" cy="25" r="5" transform="rotate(-90 45 25)" fill="white"/>
<circle cx="45" cy="5" r="5" transform="rotate(-90 45 5)" fill="white"/>
<circle cx="65" cy="145" r="5" transform="rotate(-90 65 145)" fill="white"/>
<circle cx="65" cy="125" r="5" transform="rotate(-90 65 125)" fill="white"/>
<circle cx="65" cy="105" r="5" transform="rotate(-90 65 105)" fill="white"/>
<circle cx="65" cy="85" r="5" transform="rotate(-90 65 85)" fill="white"/>
<circle cx="65" cy="65" r="5" transform="rotate(-90 65 65)" fill="white"/>
<circle cx="65" cy="45" r="5" transform="rotate(-90 65 45)" fill="white"/>
<circle cx="65" cy="25" r="5" transform="rotate(-90 65 25)" fill="white"/>
<circle cx="65" cy="5" r="5" transform="rotate(-90 65 5)" fill="white"/>
<circle cx="85" cy="145" r="5" transform="rotate(-90 85 145)" fill="white"/>
<circle cx="85" cy="125" r="5" transform="rotate(-90 85 125)" fill="white"/>
<circle cx="85" cy="105" r="5" transform="rotate(-90 85 105)" fill="white"/>
<circle cx="85" cy="85" r="5" transform="rotate(-90 85 85)" fill="white"/>
<circle cx="85" cy="65" r="5" transform="rotate(-90 85 65)" fill="white"/>
<circle cx="85" cy="45" r="5" transform="rotate(-90 85 45)" fill="white"/>
<circle cx="85" cy="25" r="5" transform="rotate(-90 85 25)" fill="white"/>
<circle cx="85" cy="5" r="5" transform="rotate(-90 85 5)" fill="white"/>
<circle cx="105" cy="145" r="5" transform="rotate(-90 105 145)" fill="white"/>
<circle cx="105" cy="125" r="5" transform="rotate(-90 105 125)" fill="white"/>
<circle cx="105" cy="105" r="5" transform="rotate(-90 105 105)" fill="white"/>
<circle cx="105" cy="85" r="5" transform="rotate(-90 105 85)" fill="white"/>
<circle cx="105" cy="65" r="5" transform="rotate(-90 105 65)" fill="white"/>
<circle cx="105" cy="45" r="5" transform="rotate(-90 105 45)" fill="white"/>
<circle cx="105" cy="25" r="5" transform="rotate(-90 105 25)" fill="white"/>
<circle cx="105" cy="5" r="5" transform="rotate(-90 105 5)" fill="white"/>
<circle cx="125" cy="145" r="5" transform="rotate(-90 125 145)" fill="white"/>
<circle cx="125" cy="125" r="5" transform="rotate(-90 125 125)" fill="white"/>
<circle cx="125" cy="105" r="5" transform="rotate(-90 125 105)" fill="white"/>
<circle cx="125" cy="85" r="5" transform="rotate(-90 125 85)" fill="white"/>
<circle cx="125" cy="65" r="5" transform="rotate(-90 125 65)" fill="white"/>
<circle cx="125" cy="45" r="5" transform="rotate(-90 125 45)" fill="white"/>
<circle cx="125" cy="25" r="5" transform="rotate(-90 125 25)" fill="white"/>
<circle cx="125" cy="5" r="5" transform="rotate(-90 125 5)" fill="white"/>
<circle cx="145" cy="145" r="5" transform="rotate(-90 145 145)" fill="white"/>
<circle cx="145" cy="125" r="5" transform="rotate(-90 145 125)" fill="white"/>
<circle cx="145" cy="105" r="5" transform="rotate(-90 145 105)" fill="white"/>
<circle cx="145" cy="85" r="5" transform="rotate(-90 145 85)" fill="white"/>
<circle cx="145" cy="65" r="5" transform="rotate(-90 145 65)" fill="white"/>
<circle cx="145" cy="45" r="5" transform="rotate(-90 145 45)" fill="white"/>
<circle cx="145" cy="25" r="5" transform="rotate(-90 145 25)" fill="white"/>
<circle cx="145" cy="5" r="5" transform="rotate(-90 145 5)" fill="white"/>
<circle cx="165" cy="145" r="5" transform="rotate(-90 165 145)" fill="white"/>
<circle cx="165" cy="125" r="5" transform="rotate(-90 165 125)" fill="white"/>
<circle cx="165" cy="105" r="5" transform="rotate(-90 165 105)" fill="white"/>
<circle cx="165" cy="85" r="5" transform="rotate(-90 165 85)" fill="white"/>
<circle cx="165" cy="65" r="5" transform="rotate(-90 165 65)" fill="white"/>
<circle cx="165" cy="45" r="5" transform="rotate(-90 165 45)" fill="white"/>
<circle cx="165" cy="25" r="5" transform="rotate(-90 165 25)" fill="white"/>
<circle cx="165" cy="5" r="5" transform="rotate(-90 165 5)" fill="white"/>
<circle cx="185" cy="145" r="5" transform="rotate(-90 185 145)" fill="white"/>
<circle cx="185" cy="125" r="5" transform="rotate(-90 185 125)" fill="white"/>
<circle cx="185" cy="105" r="5" transform="rotate(-90 185 105)" fill="white"/>
<circle cx="185" cy="85" r="5" transform="rotate(-90 185 85)" fill="white"/>
<circle cx="185" cy="65" r="5" transform="rotate(-90 185 65)" fill="white"/>
<circle cx="185" cy="45" r="5" transform="rotate(-90 185 45)" fill="white"/>
<circle cx="185" cy="25" r="5" transform="rotate(-90 185 25)" fill="white"/>
<circle cx="185" cy="5" r="5" transform="rotate(-90 185 5)" fill="white"/>
<circle cx="205" cy="145" r="5" transform="rotate(-90 205 145)" fill="white"/>
<circle cx="205" cy="125" r="5" transform="rotate(-90 205 125)" fill="white"/>
<circle cx="205" cy="105" r="5" transform="rotate(-90 205 105)" fill="white"/>
<circle cx="205" cy="85" r="5" transform="rotate(-90 205 85)" fill="white"/>
<circle cx="205" cy="65" r="5" transform="rotate(-90 205 65)" fill="white"/>
<circle cx="205" cy="45" r="5" transform="rotate(-90 205 45)" fill="white"/>
<circle cx="205" cy="25" r="5" transform="rotate(-90 205 25)" fill="white"/>
<circle cx="205" cy="5" r="5" transform="rotate(-90 205 5)" fill="white"/>
<circle cx="225" cy="145" r="5" transform="rotate(-90 225 145)" fill="white"/>
<circle cx="225" cy="125" r="5" transform="rotate(-90 225 125)" fill="white"/>
<circle cx="225" cy="105" r="5" transform="rotate(-90 225 105)" fill="white"/>
<circle cx="225" cy="85" r="5" transform="rotate(-90 225 85)" fill="white"/>
<circle cx="225" cy="65" r="5" transform="rotate(-90 225 65)" fill="white"/>
<circle cx="225" cy="45" r="5" transform="rotate(-90 225 45)" fill="white"/>
<circle cx="225" cy="25" r="5" transform="rotate(-90 225 25)" fill="white"/>
<circle cx="225" cy="5" r="5" transform="rotate(-90 225 5)" fill="white"/>
<circle cx="245" cy="145" r="5" transform="rotate(-90 245 145)" fill="white"/>
<circle cx="245" cy="125" r="5" transform="rotate(-90 245 125)" fill="white"/>
<circle cx="245" cy="105" r="5" transform="rotate(-90 245 105)" fill="white"/>
<circle cx="245" cy="85" r="5" transform="rotate(-90 245 85)" fill="white"/>
<circle cx="245" cy="65" r="5" transform="rotate(-90 245 65)" fill="white"/>
<circle cx="245" cy="45" r="5" transform="rotate(-90 245 45)" fill="white"/>
<circle cx="245" cy="25" r="5" transform="rotate(-90 245 25)" fill="white"/>
<circle cx="245" cy="5" r="5" transform="rotate(-90 245 5)" fill="white"/>
<circle cx="265" cy="145" r="5" transform="rotate(-90 265 145)" fill="white"/>
<circle cx="265" cy="125" r="5" transform="rotate(-90 265 125)" fill="white"/>
<circle cx="265" cy="105" r="5" transform="rotate(-90 265 105)" fill="white"/>
<circle cx="265" cy="85" r="5" transform="rotate(-90 265 85)" fill="white"/>
<circle cx="265" cy="65" r="5" transform="rotate(-90 265 65)" fill="white"/>
<circle cx="265" cy="45" r="5" transform="rotate(-90 265 45)" fill="white"/>
<circle cx="265" cy="25" r="5" transform="rotate(-90 265 25)" fill="white"/>
<circle cx="265" cy="5" r="5" transform="rotate(-90 265 5)" fill="white"/>
<circle cx="285" cy="145" r="5" transform="rotate(-90 285 145)" fill="white"/>
<circle cx="285" cy="125" r="5" transform="rotate(-90 285 125)" fill="white"/>
<circle cx="285" cy="105" r="5" transform="rotate(-90 285 105)" fill="white"/>
<circle cx="285" cy="85" r="5" transform="rotate(-90 285 85)" fill="white"/>
<circle cx="285" cy="65" r="5" transform="rotate(-90 285 65)" fill="white"/>
<circle cx="285" cy="45" r="5" transform="rotate(-90 285 45)" fill="white"/>
<circle cx="285" cy="25" r="5" transform="rotate(-90 285 25)" fill="white"/>
<circle cx="285" cy="5" r="5" transform="rotate(-90 285 5)" fill="white"/>
<circle cx="305" cy="145" r="5" transform="rotate(-90 305 145)" fill="white"/>
<circle cx="305" cy="125" r="5" transform="rotate(-90 305 125)" fill="white"/>
<circle cx="305" cy="105" r="5" transform="rotate(-90 305 105)" fill="white"/>
<circle cx="305" cy="85" r="5" transform="rotate(-90 305 85)" fill="white"/>
<circle cx="305" cy="65" r="5" transform="rotate(-90 305 65)" fill="white"/>
<circle cx="305" cy="45" r="5" transform="rotate(-90 305 45)" fill="white"/>
<circle cx="305" cy="25" r="5" transform="rotate(-90 305 25)" fill="white"/>
<circle cx="305" cy="5" r="5" transform="rotate(-90 305 5)" fill="white"/>
<circle cx="325" cy="145" r="5" transform="rotate(-90 325 145)" fill="white"/>
<circle cx="325" cy="125" r="5" transform="rotate(-90 325 125)" fill="white"/>
<circle cx="325" cy="105" r="5" transform="rotate(-90 325 105)" fill="white"/>
<circle cx="325" cy="85" r="5" transform="rotate(-90 325 85)" fill="white"/>
<circle cx="325" cy="65" r="5" transform="rotate(-90 325 65)" fill="white"/>
<circle cx="325" cy="45" r="5" transform="rotate(-90 325 45)" fill="white"/>
<circle cx="325" cy="25" r="5" transform="rotate(-90 325 25)" fill="white"/>
<circle cx="325" cy="5" r="5" transform="rotate(-90 325 5)" fill="white"/>
<circle cx="345" cy="145" r="5" transform="rotate(-90 345 145)" fill="white"/>
<circle cx="345" cy="125" r="5" transform="rotate(-90 345 125)" fill="white"/>
<circle cx="345" cy="105" r="5" transform="rotate(-90 345 105)" fill="white"/>
<circle cx="345" cy="85" r="5" transform="rotate(-90 345 85)" fill="white"/>
<circle cx="345" cy="65" r="5" transform="rotate(-90 345 65)" fill="white"/>
<circle cx="345" cy="45" r="5" transform="rotate(-90 345 45)" fill="white"/>
<circle cx="345" cy="25" r="5" transform="rotate(-90 345 25)" fill="white"/>
<circle cx="345" cy="5" r="5" transform="rotate(-90 345 5)" fill="white"/>
<circle cx="365" cy="145" r="5" transform="rotate(-90 365 145)" fill="white"/>
<circle cx="365" cy="125" r="5" transform="rotate(-90 365 125)" fill="white"/>
<circle cx="365" cy="105" r="5" transform="rotate(-90 365 105)" fill="white"/>
<circle cx="365" cy="85" r="5" transform="rotate(-90 365 85)" fill="white"/>
<circle cx="365" cy="65" r="5" transform="rotate(-90 365 65)" fill="white"/>
<circle cx="365" cy="45" r="5" transform="rotate(-90 365 45)" fill="white"/>
<circle cx="365" cy="25" r="5" transform="rotate(-90 365 25)" fill="white"/>
<circle cx="365" cy="5" r="5" transform="rotate(-90 365 5)" fill="white"/>
<circle cx="385" cy="145" r="5" transform="rotate(-90 385 145)" fill="white"/>
<circle cx="385" cy="125" r="5" transform="rotate(-90 385 125)" fill="white"/>
<circle cx="385" cy="105" r="5" transform="rotate(-90 385 105)" fill="white"/>
<circle cx="385" cy="85" r="5" transform="rotate(-90 385 85)" fill="white"/>
<circle cx="385" cy="65" r="5" transform="rotate(-90 385 65)" fill="white"/>
<circle cx="385" cy="45" r="5" transform="rotate(-90 385 45)" fill="white"/>
<circle cx="385" cy="25" r="5" transform="rotate(-90 385 25)" fill="white"/>
<circle cx="385" cy="5" r="5" transform="rotate(-90 385 5)" fill="white"/>
</svg>
