<svg width="190" height="30" viewBox="0 0 190 30" fill="none" xmlns="http://www.w3.org/2000/svg">
<circle cx="5" cy="5" r="5" fill="#F3F7FE"/>
<circle cx="25" cy="5" r="5" fill="#F3F7FE"/>
<circle cx="45" cy="5" r="5" fill="#F3F7FE"/>
<circle cx="65" cy="5" r="5" fill="#F3F7FE"/>
<circle cx="85" cy="5" r="5" fill="#F3F7FE"/>
<circle cx="105" cy="5" r="5" fill="#F3F7FE"/>
<circle cx="125" cy="5" r="5" fill="#F3F7FE"/>
<circle cx="145" cy="5" r="5" fill="#F3F7FE"/>
<circle cx="165" cy="5" r="5" fill="#F3F7FE"/>
<circle cx="185" cy="5" r="5" fill="#F3F7FE"/>
<circle cx="5" cy="25" r="5" fill="#F3F7FE"/>
<circle cx="25" cy="25" r="5" fill="#F3F7FE"/>
<circle cx="45" cy="25" r="5" fill="#F3F7FE"/>
<circle cx="65" cy="25" r="5" fill="#F3F7FE"/>
<circle cx="85" cy="25" r="5" fill="#F3F7FE"/>
<circle cx="105" cy="25" r="5" fill="#F3F7FE"/>
<circle cx="125" cy="25" r="5" fill="#F3F7FE"/>
<circle cx="145" cy="25" r="5" fill="#F3F7FE"/>
<circle cx="165" cy="25" r="5" fill="#F3F7FE"/>
<circle cx="185" cy="25" r="5" fill="#F3F7FE"/>
</svg>
