<svg width="16" height="17" viewBox="0 0 16 17" fill="none" xmlns="http://www.w3.org/2000/svg">
<path d="M0.800024 7.1499V7.3999H0.950024V7.6499H1.10002V7.3999H1.25002V7.1499H1.40002V6.8999H1.55002V6.6499H1.70002V6.3999H1.85002V6.1499H1.65002V5.8999H1.52502V5.6499H1.07502V5.8999H1.37502V6.1499H1.22502V6.3999H1.07502V6.6499H0.925024V6.3999H0.800024C0.750024 6.5999 0.700024 6.8249 0.650024 7.0249V7.1249H0.800024V7.1499Z" fill="white"/>
<path d="M2.52495 3.375L2.44995 3.45H2.52495V3.375Z" fill="white"/>
<path d="M3.70005 2.4749H3.55005V2.7249H3.40005V2.9749H3.25005V3.2249H3.10005V3.4749H2.95005V3.2249H2.80005V3.0999L2.65005 3.2499V3.4749H2.80005V3.7249H2.95005V3.9749H2.80005V4.2249H2.65005V4.4749H2.50005V4.2249H2.37505V3.9749H2.25005V3.7249C2.20005 3.7749 2.15005 3.8499 2.10005 3.8999V3.9749H2.05005C2.00005 3.9999 1.97505 4.0249 1.95005 4.0749V4.1999H1.85005C1.82505 4.2249 1.82505 4.2499 1.80005 4.2749V4.4249H1.70005C1.65005 4.4999 1.60005 4.5999 1.55005 4.6749H1.67505V4.9249H1.82505V5.1749H1.97505V5.4249H2.12505V5.6749H2.25005V5.4249H2.40005V5.1749H2.55005V4.9249H2.70005V4.6749H2.85005V4.4249H3.00005V4.1749H3.15005V4.4249H3.25005V4.6749H3.40005V4.9249H3.55005V5.1749H3.70005V5.4249H3.85005V4.9249H3.70005V4.6749H3.85005V3.9499H3.70005V4.1999H3.55005V4.4499H3.40005V4.1999H3.25005V3.9499H3.10005V3.6999H3.25005V3.4499H3.40005V3.1999H3.55005V3.4499H3.70005V3.6999H3.85005V2.9499H3.70005V2.6999H3.85005V2.2749C3.80005 2.2999 3.75005 2.3499 3.70005 2.3749V2.4749V2.4749ZM2.25005 4.9249H2.10005V4.4249H2.25005V4.9249Z" fill="white"/>
<path d="M0.65 9.3501V9.1001H0.8V8.8501H0.95V8.6001H1.1V8.3501H0.925V8.1001H0.8V7.8501H0.65V7.6001H0.55C0.525 7.9251 0.5 8.2001 0.5 8.5001C0.5 8.8001 0.525 9.0751 0.55 9.3501H0.65Z" fill="white"/>
<path d="M3.7 7.8749H3.55V8.1249H3.4V8.3749H3.25V8.6249H3.4V8.8749H3.55V9.1249H3.7V9.3499H3.825V7.6499H3.7V7.8749Z" fill="white"/>
<path d="M2.37498 3.5249C2.32498 3.5749 2.27498 3.6499 2.22498 3.6999H2.37498V3.5249Z" fill="white"/>
<path d="M2.44995 13.5498L2.52495 13.6248V13.5498H2.44995Z" fill="white"/>
<path d="M2.25 13.2998C2.3 13.3498 2.35 13.4248 2.4 13.4748V13.2998H2.25Z" fill="white"/>
<path d="M3.70005 14.2749V14.0249H3.85005V13.2749H3.70005V13.5249H3.55005V13.7749H3.40005V13.5249H3.25005V13.2749H3.10005V13.0249H3.25005V12.7749H3.40005V12.5249H3.55005V12.7749H3.70005V13.0249H3.85005V12.2749H3.70005V12.0249H3.85005V11.5249H3.70005V11.7749H3.55005V12.0249H3.40005V12.2749H3.25005V12.5249H3.10005V12.7749H2.95005V12.5249H2.80005V12.2749H2.65005V12.0249H2.50005V11.7749H2.37505V11.5249H2.25005V11.2749H2.10005V11.5249H1.95005V11.7749H1.80005V12.0249H1.65005V12.2749H1.55005C1.60005 12.3499 1.65005 12.4499 1.70005 12.5249H1.80005V12.6749C1.82505 12.6999 1.82505 12.7249 1.85005 12.7499H1.95005V12.8749C1.97505 12.9749 2.00005 12.9999 2.05005 13.0499H2.10005V13.1249C2.15005 13.1749 2.20005 13.2499 2.25005 13.2999V13.0499H2.40005V12.7999H2.55005V12.5499H2.70005V12.7999H2.85005V13.0499H3.00005V13.2999H2.85005V13.5499H2.70005V13.7749L2.85005 13.9249V13.7999H3.00005V13.5499H3.15005V13.7999H3.25005V14.0499H3.40005V14.2999H3.55005V14.5499H3.70005V14.6499C3.75005 14.6749 3.80005 14.7249 3.85005 14.7499V14.2999L3.70005 14.2749V14.2749ZM2.25005 12.5499H2.10005V12.0499H2.25005V12.5499Z" fill="white"/>
<path d="M3.70002 9.8501H3.55002V9.6001H3.40002V9.3501H3.25002V9.6001H3.10002V9.8501H2.97502V10.1001H2.82502V10.3501H2.67502V10.6001H2.52502V10.8251H2.67502V11.0751H2.82502V11.3251H3.25002V11.0751H2.97502V10.8251H3.10002V10.6001H3.25002V10.3501H3.40002V10.6001H3.55002V10.8251H3.70002V11.0751H3.82502V10.6001H3.70002V10.3501H3.82502V10.1001H3.70002V9.8501Z" fill="white"/>
<path d="M3.70002 6.1748H3.55002V6.3998H3.40002V6.6498H3.25002V6.3998H3.10002V6.1748H2.97502V5.9248H3.25002V5.6748H2.82502V5.9248H2.67502V6.1748H2.52502V6.3998H2.67502V6.6498H2.82502V6.8998H2.97502V7.1498H3.10002V7.3998H3.25002V7.6498H3.40002V7.3998H3.55002V7.1498H3.70002V6.8998H3.82502V6.6498H3.70002V6.3998H3.82502V5.9248H3.70002V6.1748Z" fill="white"/>
<path d="M0.925024 10.3501H1.07502V10.6001H1.22502V10.8501H1.37502V11.1001H1.07502V11.3501H1.50002V11.1001H1.65002V10.8501H1.80002V10.6001H1.65002V10.3501H1.52502V10.1001H1.37502V9.8501H1.22502V9.6001H1.07502V9.3501H0.925024V9.6001H0.800024V9.8501H0.650024V9.9501C0.700024 10.1751 0.750024 10.3751 0.800024 10.5751H0.925024V10.3501" fill="white"/>
<path d="M2.525 7.1499H2.375V6.8999H2.25V6.6499H2.1V6.8999H1.95V7.1499H1.8V7.3999H1.65V7.6499H1.525V7.8999H1.375V9.1499H1.525V9.3999H1.675V9.6499H1.825V9.8999H1.975V10.1499H2.125V10.3999H2.25V10.1499H2.4V9.8999H2.55V9.6499H2.7V9.3999H2.85V9.1499H3V7.8999H2.85V7.6499H2.7V7.3999H2.55L2.525 7.1499ZM1.65 8.4749V8.6249H1.525V8.3749H1.675V8.4749H1.65ZM2.675 8.5249V8.3749H2.825V8.6249H2.675V8.5249ZM2.1 7.1499H2.25V7.3999H2.1V7.1499V7.1499ZM2.25 9.8499H2.1V9.5999H2.25V9.8499ZM2.525 8.1249H2.375V8.3749H2.25V8.6249H2.4V8.8749H2.55V9.3749H2.375V9.1249H2.25V8.8749H2.1V9.1249H1.95V9.3749H1.8V8.8749H1.95V8.6249H2.1V8.3749H1.95V8.1249H1.8V7.6249H1.95V7.8749H2.1V8.1249H2.25V7.8749H2.4V7.6249H2.55L2.525 8.1249Z" fill="white"/>
<path d="M1.80007 4.2749C1.77507 4.3249 1.72507 4.3749 1.70007 4.4249H1.80007V4.2749Z" fill="#C8313E"/>
<path d="M1.9501 4.2002V4.0752C1.9251 4.1252 1.9001 4.1502 1.8501 4.2002H1.9501Z" fill="#C8313E"/>
<path d="M2.10005 3.95V3.875C2.07505 3.9 2.07505 3.925 2.05005 3.95H2.10005Z" fill="#C8313E"/>
<path d="M1.52502 8.475V8.625H1.65002V8.375H1.52502V8.475Z" fill="#C8313E"/>
<path d="M3.70007 4.7002H3.85007V4.9502H3.70007V4.7002Z" fill="#C8313E"/>
<path d="M2.375 3.9501V4.2001H2.525V4.4501H2.675V4.2001H2.825V3.9501H2.975V3.7001H2.825V3.4501H2.675V3.2251L2.525 3.3751V3.4501H2.45L2.375 3.5251V3.7001H2.25V3.9501H2.375Z" fill="#C8313E"/>
<path d="M3.70007 2.7251H3.85007V2.9751H3.70007V2.7251Z" fill="#C8313E"/>
<path d="M3.7001 3.4501H3.5501V3.2251H3.4001V3.4501H3.2501V3.7001H3.1001V3.9501H3.2501V4.2001H3.4001V4.4501H3.5501V4.2001H3.7001V3.9501H3.8251V3.7001H3.7001V3.4501Z" fill="#C8313E"/>
<path d="M2.97507 3.225V3.475H3.12507V3.225H3.25007V2.975H3.40007V2.725H3.55007V2.475H3.70007V2.375C3.42507 2.575 3.15007 2.775 2.92507 3C2.90007 3.025 2.87507 3.05 2.82507 3.075V3.2H2.97507V3.225Z" fill="#C8313E"/>
<path d="M2.1501 4.4502H2.1001V4.9252H2.2501V4.4502H2.1751H2.1501Z" fill="#C8313E"/>
<path d="M2.37505 7.8749H2.25005V8.1249H2.10005V7.8749H1.95005V7.6499H1.80005V8.1249H1.95005V8.3749H2.10005V8.6249H1.95005V8.8749H1.80005V9.3499H1.95005V9.1249H2.10005V8.8749H2.25005V9.1249H2.37505V9.3499H2.52505V8.8749H2.37505V8.6249H2.25005V8.3749H2.37505V8.1249H2.52505V7.6499H2.37505V7.8749Z" fill="#C8313E"/>
<path d="M3.70007 6.3999H3.85007V6.6499H3.70007V6.3999Z" fill="#C8313E"/>
<path d="M3.70005 5.1748H3.55005V4.9248H3.40005V4.6748H3.25005V4.4248H3.10005V4.1748H2.95005V4.4248H2.80005V4.6748H2.65005V4.9248H2.50005V5.1748H2.37505V5.4248H2.25005V5.6748H2.10005V5.4248H1.95005V5.1748H1.80005V4.9248H1.65005V4.6748H1.55005C1.40005 4.9248 1.25005 5.1998 1.12505 5.4748C1.00005 5.7748 0.900049 6.0748 0.800049 6.3748H0.925049V6.6248H1.07505V6.3748H1.22505V6.1248H1.37505V5.8748H1.07505V5.6248H1.50005V5.8748H1.65005V6.1248H1.80005V6.3748H1.65005V6.6248H1.52505V6.8748H1.37505V7.1248H1.22505V7.3748H1.07505V7.6248H0.925049V7.3748H0.800049V7.1248H0.650049V7.0248C0.600049 7.2248 0.575049 7.4248 0.550049 7.6248H0.650049V7.8748H0.800049V8.1248H0.950049V8.3748H1.10005V8.6248H0.925049V8.8748H0.800049V9.1248H0.650049V9.3748H0.550049C0.575049 9.5748 0.600049 9.7748 0.650049 9.9748V9.8748H0.800049V9.6248H0.950049V9.3748H1.10005V9.6248H1.25005V9.8748H1.40005V10.1248H1.55005V10.3748H1.70005V10.6248H1.85005V10.8748H1.65005V11.1248H1.52505V11.3748H1.07505V11.1248H1.37505V10.8748H1.22505V10.6248H1.07505V10.3748H0.925049V10.6248H0.800049C0.900049 10.8998 1.00005 11.1998 1.12505 11.4998C1.25005 11.7748 1.40005 12.0498 1.55005 12.2998H1.67505V12.0498H1.82505V11.7998H1.97505V11.5498H2.12505V11.2998H2.25005V11.5498H2.40005V11.7998H2.55005V12.0498H2.70005V12.2998H2.85005V12.5498H3.00005V12.7998H3.15005V12.5498H3.25005V12.2998H3.40005V12.0498H3.55005V11.7998H3.70005V11.5498H3.85005V11.0498H3.70005V10.7998H3.55005V10.5498H3.40005V10.2998H3.25005V10.5498H3.10005V10.7998H2.95005V11.0498H3.25005V11.2998H2.82505V11.0498H2.67505V10.7998H2.52505V10.5498H2.67505V10.2998H2.82505V10.0498H2.97505V9.7998H3.12505V9.5498H3.25005V9.2998H3.40005V9.5498H3.55005V9.7998H3.70005V10.0498H3.85005V9.2998H3.70005V9.0498H3.55005V8.7998H3.40005V8.5498H3.25005V8.2998H3.40005V8.0498H3.55005V7.7998H3.70005V7.5498H3.85005V6.7998H3.70005V7.0498H3.55005V7.2998H3.40005V7.5498H3.25005V7.2998H3.10005V7.0498H2.95005V6.7998H2.80005V6.5498H2.65005V6.2998H2.50005V6.0498H2.65005V5.7998H2.80005V5.5498H3.25005V5.7998H2.95005V6.0498H3.10005V6.2998H3.25005V6.5498H3.40005V6.2998H3.55005V6.0498H3.70005V5.7998H3.85005V5.2998H3.70005V5.1748V5.1748ZM2.67505 7.3998V7.6498H2.82505V7.8998H2.97505V9.1498H2.82505V9.3998H2.67505V9.6498H2.52505V9.8998H2.37505V10.1498H2.25005V10.3998H2.10005V10.1498H1.95005V9.8998H1.80005V9.6498H1.65005V9.3998H1.52505V9.1498H1.37505V7.8998H1.52505V7.6498H1.67505V7.3998H1.82505V7.1498H1.97505V6.8998H2.12505V6.6498H2.25005V6.8998H2.40005V7.1498H2.55005V7.3998H2.67505Z" fill="#C8313E"/>
<path d="M2.1751 7.3999H2.2501V7.1499H2.1001V7.3999H2.1501H2.1751Z" fill="#C8313E"/>
<path d="M1.80007 12.5498H1.70007C1.72507 12.5998 1.77507 12.6498 1.80007 12.6998V12.5498Z" fill="#C8313E"/>
<path d="M1.9501 12.7998H1.8501C1.8751 12.8498 1.9001 12.8748 1.9501 12.9248V12.7998Z" fill="#C8313E"/>
<path d="M2.10005 13.0498H2.05005C2.07505 13.0748 2.07505 13.0998 2.10005 13.1248V13.0498Z" fill="#C8313E"/>
<path d="M3.70007 12.0752H3.85007V12.3252H3.70007V12.0752Z" fill="#C8313E"/>
<path d="M3.7001 12.7998H3.5501V12.5498H3.4001V12.7998H3.2501V13.0498H3.1001V13.2998H3.2501V13.5498H3.4001V13.7748H3.5501V13.5498H3.7001V13.2998H3.8251V13.0498H3.7001V12.7998Z" fill="#C8313E"/>
<path d="M2.375 13.2998V13.4748L2.45 13.5498H2.525V13.6248L2.675 13.7748V13.5498H2.825V13.2998H2.975V13.0498H2.825V12.7998H2.675V12.5498H2.525V12.7998H2.375V13.0498H2.25V13.2998H2.375Z" fill="#C8313E"/>
<path d="M3.70007 14.0249H3.85007V14.2749H3.70007V14.0249Z" fill="#C8313E"/>
<path d="M2.90005 13.9999C3.15005 14.2249 3.40005 14.4499 3.67505 14.6249V14.5249H3.52505V14.2749H3.37505V14.0249H3.25005V13.7749H3.10005V13.5249H2.95005V13.7749H2.80005V13.8999L2.90005 13.9999" fill="#C8313E"/>
<path d="M2.1501 12.0752H2.1001V12.5502H2.2501V12.0752H2.1751H2.1501Z" fill="#C8313E"/>
<path d="M3.70007 10.3501H3.85007V10.6001H3.70007V10.3501Z" fill="#C8313E"/>
<path d="M2.82505 8.525V8.375H2.67505V8.625H2.82505V8.525Z" fill="#C8313E"/>
<path d="M2.1501 9.6001H2.1001V9.8501H2.2501V9.6001H2.1751H2.1501Z" fill="#C8313E"/>
<path d="M3.82495 11.5V14.725C5.02495 15.525 6.44995 16 7.99995 16C9.97495 16 11.75 15.25 13.1 14C13.85 13.3 14.475 12.45 14.875 11.5H3.82495Z" fill="#83BF4F"/>
<path d="M14.875 11.5C15.275 10.575 15.5 9.575 15.5 8.5C15.5 7.425 15.275 6.425 14.875 5.5C14.45 4.55 13.85 3.7 13.1 3C11.75 1.75 9.97495 1 7.99995 1C6.44995 1 5.02495 1.475 3.82495 2.275V11.5H14.875Z" fill="#C94747"/>
</svg>
