<svg width="445" height="367" viewBox="0 0 445 367" fill="none" xmlns="http://www.w3.org/2000/svg">
<path fill-rule="evenodd" clip-rule="evenodd" d="M4 0H0V4V30H4V4H30V0H4Z" fill="#FFE342"/>
<path fill-rule="evenodd" clip-rule="evenodd" d="M441 367H445V363V337H441V363H415V367H441Z" fill="#FFE342"/>
<g clip-path="url(#clip0)">
<path fill-rule="evenodd" clip-rule="evenodd" d="M316.627 134.064C313.95 134.421 304.298 108.964 264.088 130.295C228.722 149.055 178.267 210.253 133.241 171.185C125.378 164.362 122.058 156.439 121.359 145.076C121.234 143.78 122.317 143.458 123.33 144.656C170.222 199.871 256.827 40.2363 311.595 114.891C315.684 120.495 319.591 133.315 316.634 134.064H316.627Z" fill="#0345A6"/>
<path fill-rule="evenodd" clip-rule="evenodd" d="M301.216 89.3358C237.969 38.1067 162.96 167.479 128.978 133.805C121.576 126.463 123.925 113.378 125.413 109.091C127.88 101.994 128.761 123.332 148.38 112.138C167.776 101.077 180.853 79.3324 214.478 66.7791C275.502 44.0051 308.932 89.7632 303.012 90.6528C302.648 90.7089 301.481 89.581 301.216 89.3639V89.3358Z" fill="#1D78E8"/>
<path fill-rule="evenodd" clip-rule="evenodd" d="M251.277 46.2889C252.186 46.6672 253.136 48.7057 247.824 48.1663C214.87 44.8178 184.69 59.3816 160.57 80.2291C158.354 82.1416 136.967 103.101 135.017 95.6406C131.431 81.8263 163.938 56.1522 180.328 49.6094C200.444 40.8739 231.071 37.1611 251.277 46.2889Z" fill="#45AAF7"/>
<path fill-rule="evenodd" clip-rule="evenodd" d="M138.735 189.356C201.981 240.649 276.991 111.241 310.973 144.915C318.375 152.257 316.026 165.343 314.537 169.63C312.07 176.726 311.189 155.388 291.57 166.583C272.175 177.644 259.098 199.388 225.472 211.941C164.421 234.715 131.019 188.957 136.939 188.068C137.302 188.011 138.469 189.139 138.735 189.356Z" fill="#012283"/>
<path fill-rule="evenodd" clip-rule="evenodd" d="M188.674 232.431C187.765 232.053 186.849 229.734 192.126 230.554C225.109 233.622 255.261 219.346 279.381 198.484C281.597 196.572 302.984 175.612 304.934 183.073C308.52 196.887 276.012 222.561 259.622 229.104C239.507 237.132 208.88 241.559 188.674 232.431Z" fill="#040A66"/>
<path d="M75.181 322.609C72.539 324.823 68.7718 326.028 64.3475 326.028C61.2023 326.038 58.082 325.468 55.1426 324.347C52.195 323.194 49.4828 321.511 47.1398 319.38C47.0592 319.307 47.0098 319.206 47.0019 319.098C46.9941 318.989 47.0285 318.882 47.0979 318.799L51.3893 313.685C51.4255 313.643 51.4695 313.608 51.519 313.583C51.5685 313.558 51.6224 313.544 51.6776 313.54C51.7329 313.536 51.7883 313.543 51.8408 313.561C51.8933 313.578 51.9418 313.606 51.9834 313.643C53.7294 315.217 55.7073 316.512 57.8475 317.482C59.9533 318.388 62.2238 318.846 64.5153 318.827C66.2816 318.912 68.0307 318.445 69.5196 317.489C70.0796 317.096 70.5341 316.571 70.8426 315.96C71.1511 315.349 71.3041 314.671 71.2879 313.986C71.3307 313.359 71.2071 312.732 70.9297 312.168C70.6522 311.605 70.2308 311.125 69.7084 310.778C68.4083 309.832 66.1648 309.012 62.4534 308.123C58.0781 307.093 54.6464 305.923 52.291 304.032C49.9356 302.14 48.6216 299.492 48.6216 295.541C48.5993 293.865 48.949 292.205 49.6452 290.681C50.3415 289.157 51.3669 287.807 52.6474 286.729C55.1775 284.578 58.7491 283.324 62.8938 283.324C65.6762 283.294 68.4428 283.747 71.0713 284.662C73.5424 285.556 75.8443 286.863 77.8789 288.529C77.9625 288.597 78.0175 288.693 78.0331 288.8C78.0486 288.906 78.0235 289.015 77.9627 289.103L74.1326 294.511C74.0652 294.596 73.9681 294.651 73.8614 294.665C73.7547 294.679 73.6466 294.652 73.5595 294.589C71.9111 293.328 70.098 292.3 68.1707 291.534C66.4588 290.856 64.6365 290.503 62.7959 290.49C61.184 290.421 59.5928 290.875 58.2598 291.786C57.7416 292.154 57.3192 292.641 57.0285 293.207C56.7377 293.773 56.5871 294.4 56.5894 295.037C56.5417 295.69 56.6735 296.343 56.9705 296.926C57.2675 297.509 57.7183 297.999 58.2738 298.343C59.6717 299.282 62.0271 300.081 65.8572 300.998C70.2186 302.063 73.5455 303.38 75.7821 305.314C78.0187 307.247 79.2278 309.874 79.2278 313.433C79.2887 315.169 78.9562 316.897 78.2553 318.486C77.5544 320.076 76.5033 321.485 75.181 322.609ZM123.184 325.411H92.8081C92.753 325.411 92.6985 325.401 92.6476 325.379C92.5967 325.358 92.5505 325.327 92.5115 325.288C92.4726 325.249 92.4417 325.203 92.4206 325.152C92.3996 325.101 92.3887 325.046 92.3887 324.991V284.326C92.3887 284.214 92.4329 284.108 92.5115 284.029C92.5902 283.95 92.6968 283.906 92.8081 283.906H122.897C123.008 283.906 123.115 283.95 123.194 284.029C123.272 284.108 123.316 284.214 123.316 284.326V290.715C123.316 290.826 123.272 290.933 123.194 291.012C123.115 291.091 123.008 291.135 122.897 291.135H100.357V300.893H120.283C120.394 300.893 120.501 300.938 120.58 301.016C120.658 301.095 120.702 301.202 120.702 301.314V307.702C120.702 307.814 120.658 307.921 120.58 307.999C120.501 308.078 120.394 308.123 120.283 308.123H100.357V318.203H123.184C123.295 318.203 123.402 318.247 123.48 318.326C123.559 318.405 123.603 318.512 123.603 318.623V325.019C123.603 325.131 123.559 325.238 123.48 325.316C123.402 325.395 123.295 325.439 123.184 325.439V325.411ZM144.229 325.411H137.239C137.184 325.411 137.13 325.401 137.079 325.379C137.028 325.358 136.982 325.327 136.943 325.288C136.904 325.249 136.873 325.203 136.852 325.152C136.831 325.101 136.82 325.046 136.82 324.991V284.326C136.82 284.214 136.864 284.108 136.943 284.029C137.021 283.95 137.128 283.906 137.239 283.906H144.837C144.907 283.906 144.976 283.924 145.037 283.958C145.098 283.993 145.149 284.042 145.186 284.102L157.18 302.778L169.166 284.123C169.201 284.056 169.253 284 169.317 283.962C169.381 283.923 169.455 283.904 169.53 283.906H177.127C177.238 283.906 177.345 283.95 177.424 284.029C177.502 284.108 177.547 284.214 177.547 284.326V324.998C177.547 325.11 177.502 325.217 177.424 325.295C177.345 325.374 177.238 325.418 177.127 325.418H169.963C169.852 325.418 169.745 325.374 169.667 325.295C169.588 325.217 169.544 325.11 169.544 324.998V297.215L157.522 315.212C157.484 315.276 157.43 315.33 157.365 315.367C157.3 315.403 157.227 315.423 157.152 315.422H156.921C156.853 315.422 156.785 315.406 156.724 315.374C156.663 315.342 156.611 315.296 156.572 315.24L144.648 297.335V324.998C144.648 325.11 144.604 325.217 144.525 325.295C144.446 325.374 144.34 325.418 144.229 325.418V325.411ZM196.921 325.411H189.617C189.56 325.41 189.503 325.398 189.449 325.376C189.349 325.33 189.27 325.247 189.229 325.144C189.189 325.04 189.19 324.925 189.233 324.823L207.056 283.899C207.083 283.814 207.136 283.741 207.208 283.689C207.279 283.637 207.366 283.61 207.454 283.611H214.059C214.141 283.614 214.22 283.639 214.289 283.685C214.357 283.731 214.41 283.795 214.443 283.871L232.287 324.795C232.317 324.859 232.334 324.928 232.336 324.998C232.336 325.053 232.325 325.108 232.304 325.159C232.283 325.21 232.252 325.256 232.213 325.295C232.174 325.334 232.128 325.365 232.077 325.386C232.026 325.408 231.972 325.418 231.917 325.418H224.396C224.314 325.417 224.234 325.392 224.166 325.346C224.097 325.3 224.044 325.235 224.012 325.159L220.007 315.604H201.373L197.319 325.138C197.292 325.222 197.238 325.295 197.167 325.346C197.095 325.398 197.009 325.426 196.921 325.425V325.411ZM210.662 293.629L204.372 308.417H217.071L210.697 293.629H210.662ZM251.473 325.411H244.483C244.428 325.411 244.374 325.401 244.323 325.379C244.272 325.358 244.226 325.327 244.187 325.288C244.148 325.249 244.117 325.203 244.096 325.152C244.075 325.101 244.064 325.046 244.064 324.991V284.326C244.064 284.214 244.108 284.108 244.187 284.029C244.266 283.95 244.372 283.906 244.483 283.906H251.088C251.152 283.906 251.214 283.92 251.271 283.948C251.328 283.976 251.378 284.017 251.417 284.067L272.385 311.219V284.326C272.385 284.271 272.396 284.216 272.417 284.165C272.438 284.114 272.469 284.068 272.508 284.029C272.547 283.99 272.593 283.959 272.644 283.938C272.695 283.916 272.749 283.906 272.804 283.906H279.793C279.849 283.905 279.904 283.915 279.956 283.936C280.008 283.956 280.055 283.987 280.095 284.026C280.134 284.065 280.166 284.112 280.187 284.163C280.209 284.215 280.22 284.27 280.22 284.326V324.998C280.22 325.054 280.209 325.109 280.187 325.161C280.166 325.212 280.134 325.259 280.095 325.298C280.055 325.337 280.008 325.368 279.956 325.388C279.904 325.409 279.849 325.419 279.793 325.418H273.825C273.76 325.418 273.697 325.403 273.64 325.374C273.583 325.345 273.534 325.302 273.496 325.25L251.871 297.293V324.998C251.871 325.11 251.827 325.217 251.748 325.295C251.67 325.374 251.563 325.418 251.452 325.418L251.473 325.411ZM312.979 325.411H305.787C305.732 325.411 305.677 325.401 305.626 325.379C305.575 325.358 305.529 325.327 305.49 325.288C305.451 325.249 305.42 325.203 305.399 325.152C305.378 325.101 305.367 325.046 305.367 324.991V291.366H292.919C292.808 291.366 292.702 291.322 292.623 291.243C292.544 291.164 292.5 291.057 292.5 290.946V284.319C292.5 284.207 292.544 284.101 292.623 284.022C292.702 283.943 292.808 283.899 292.919 283.899H325.874C325.985 283.899 326.092 283.943 326.171 284.022C326.249 284.101 326.293 284.207 326.293 284.319V290.946C326.293 291.057 326.249 291.164 326.171 291.243C326.092 291.322 325.985 291.366 325.874 291.366H313.398V324.991C313.398 325.046 313.387 325.101 313.366 325.152C313.345 325.203 313.314 325.249 313.275 325.288C313.236 325.327 313.19 325.358 313.139 325.379C313.088 325.401 313.034 325.411 312.979 325.411ZM346.486 325.411H339.349C339.294 325.411 339.24 325.401 339.189 325.379C339.138 325.358 339.092 325.327 339.053 325.288C339.014 325.249 338.983 325.203 338.962 325.152C338.941 325.101 338.93 325.046 338.93 324.991V284.326C338.93 284.214 338.974 284.108 339.053 284.029C339.132 283.95 339.238 283.906 339.349 283.906H346.486C346.597 283.906 346.703 283.95 346.782 284.029C346.861 284.108 346.905 284.214 346.905 284.326V324.998C346.905 325.11 346.861 325.217 346.782 325.295C346.703 325.374 346.597 325.418 346.486 325.418V325.411ZM387.925 322.609C385.283 324.823 381.516 326.028 377.092 326.028C373.947 326.038 370.826 325.468 367.887 324.347C364.941 323.203 362.229 321.529 359.884 319.408C359.803 319.335 359.754 319.234 359.746 319.126C359.738 319.017 359.773 318.91 359.842 318.827L364.134 313.713C364.17 313.671 364.214 313.636 364.263 313.611C364.313 313.586 364.367 313.572 364.422 313.568C364.477 313.564 364.533 313.571 364.585 313.589C364.638 313.606 364.686 313.634 364.728 313.671C366.474 315.245 368.452 316.54 370.592 317.51C372.7 318.416 374.973 318.874 377.267 318.855C379.031 318.94 380.777 318.473 382.264 317.517C382.824 317.124 383.278 316.599 383.587 315.988C383.895 315.377 384.048 314.699 384.032 314.014C384.075 313.387 383.951 312.76 383.674 312.196C383.397 311.633 382.975 311.153 382.453 310.806C381.153 309.86 378.909 309.04 375.198 308.151C370.822 307.121 367.398 305.951 365.035 304.06C362.673 302.168 361.366 299.485 361.366 295.541C361.344 293.865 361.693 292.205 362.39 290.681C363.086 289.157 364.111 287.807 365.392 286.729C367.922 284.578 371.493 283.324 375.638 283.324C378.421 283.294 381.187 283.747 383.816 284.662C386.287 285.554 388.59 286.862 390.623 288.529C390.707 288.597 390.762 288.693 390.777 288.8C390.793 288.906 390.768 289.015 390.707 289.103L386.877 294.511C386.81 294.601 386.711 294.66 386.601 294.675C386.491 294.691 386.379 294.662 386.29 294.596C384.643 293.337 382.832 292.309 380.908 291.541C379.194 290.864 377.369 290.51 375.526 290.497C373.922 290.423 372.337 290.867 371.004 291.765C370.486 292.133 370.064 292.62 369.773 293.186C369.482 293.752 369.331 294.379 369.334 295.016C369.286 295.669 369.418 296.322 369.715 296.905C370.012 297.488 370.463 297.978 371.018 298.322H371.053C372.451 299.261 374.799 300.06 378.629 300.977C382.991 302.042 386.318 303.359 388.554 305.299C390.791 307.24 392 309.853 392 313.412C392.062 315.154 391.728 316.888 391.022 318.482C390.316 320.075 389.257 321.487 387.925 322.609Z" fill="#000C61"/>
</g>
<defs>
<clipPath id="clip0">
<rect width="345" height="285" fill="white" transform="translate(47 41)"/>
</clipPath>
</defs>
</svg>
