<svg width="30" height="190" viewBox="0 0 30 190" fill="none" xmlns="http://www.w3.org/2000/svg">
<circle r="5" transform="matrix(0 1 1 0 5 5)" fill="#F6FAFF"/>
<circle r="5" transform="matrix(0 1 1 0 5 25)" fill="#F6FAFF"/>
<circle r="5" transform="matrix(0 1 1 0 5 45)" fill="#F6FAFF"/>
<circle r="5" transform="matrix(0 1 1 0 5 65)" fill="#F6FAFF"/>
<circle r="5" transform="matrix(0 1 1 0 5 85)" fill="#F6FAFF"/>
<circle r="5" transform="matrix(0 1 1 0 5 105)" fill="#F6FAFF"/>
<circle r="5" transform="matrix(0 1 1 0 5 125)" fill="#F6FAFF"/>
<circle r="5" transform="matrix(0 1 1 0 5 145)" fill="#F6FAFF"/>
<circle r="5" transform="matrix(0 1 1 0 5 165)" fill="#F6FAFF"/>
<circle r="5" transform="matrix(0 1 1 0 5 185)" fill="#F6FAFF"/>
<circle r="5" transform="matrix(0 1 1 0 25 5)" fill="#F6FAFF"/>
<circle r="5" transform="matrix(0 1 1 0 25 25)" fill="#F6FAFF"/>
<circle r="5" transform="matrix(0 1 1 0 25 45)" fill="#F6FAFF"/>
<circle r="5" transform="matrix(0 1 1 0 25 65)" fill="#F6FAFF"/>
<circle r="5" transform="matrix(0 1 1 0 25 85)" fill="#F6FAFF"/>
<circle r="5" transform="matrix(0 1 1 0 25 105)" fill="#F6FAFF"/>
<circle r="5" transform="matrix(0 1 1 0 25 125)" fill="#F6FAFF"/>
<circle r="5" transform="matrix(0 1 1 0 25 145)" fill="#F6FAFF"/>
<circle r="5" transform="matrix(0 1 1 0 25 165)" fill="#F6FAFF"/>
<circle r="5" transform="matrix(0 1 1 0 25 185)" fill="#F6FAFF"/>
</svg>
