<svg width="425" height="410" viewBox="0 0 425 410" fill="none" xmlns="http://www.w3.org/2000/svg">
<g filter="url(#filter0_d)">
<path d="M37.7288 367.737L385 21M37.7288 21L385 367.737" stroke="#F6FAFF" stroke-dasharray="10 20"/>
<rect x="37.5" y="21.5" width="346.271" height="346.271" stroke="#F6FAFF" stroke-dasharray="10 20"/>
<circle cx="210.636" cy="194.636" r="173.136" stroke="#F6FAFF" stroke-dasharray="10 20"/>
<circle cx="212.086" cy="194.086" r="125.586" stroke="#F6FAFF" stroke-dasharray="10 20"/>
<circle cx="211.673" cy="193.673" r="41.1725" stroke="#F6FAFF" stroke-dasharray="10 20"/>
<path d="M156 81.7106C161.504 80.4403 167.238 79.769 173.128 79.769C215.028 79.769 248.994 113.735 248.994 155.634C248.994 161.022 248.432 166.279 247.364 171.349C263.242 154.785 272.998 132.307 272.998 107.551C272.998 67.8293 247.882 33.9741 212.664 21C185.4 31.0441 164.189 53.6033 156 81.7106Z" fill="white"/>
<path d="M87.7392 212.761C88.2321 207.133 89.3654 201.473 91.1856 195.87C104.133 156.022 146.933 134.214 186.782 147.162C191.906 148.827 196.732 150.985 201.224 153.568C190.377 133.349 172.014 117.124 148.469 109.474C110.692 97.1993 70.7321 110.624 47.5102 140.109C48.6375 169.143 63.5382 196.286 87.7392 212.761Z" fill="white"/>
<path d="M191.685 317.884C186.485 315.676 181.452 312.849 176.686 309.387C142.789 284.759 135.275 237.315 159.902 203.418C163.069 199.059 166.614 195.137 170.458 191.663C147.876 195.731 126.771 208.181 112.22 228.209C88.8722 260.345 89.2921 302.497 110.158 333.694C138.119 341.593 168.538 335.81 191.685 317.884Z" fill="white"/>
<path d="M322.315 251.884C318.609 256.147 314.365 260.06 309.599 263.523C275.702 288.151 228.258 280.636 203.63 246.739C200.463 242.38 197.828 237.797 195.712 233.068C192.603 255.801 197.922 279.72 212.473 299.749C235.821 331.884 276.04 344.511 312.158 334.306C328.311 310.155 332.211 279.437 322.315 251.884Z" fill="white"/>
<path d="M300.261 104.761C303.17 109.603 305.58 114.849 307.4 120.451C320.348 160.299 298.54 203.099 258.692 216.047C253.568 217.712 248.395 218.802 243.243 219.353C263.902 229.335 288.295 231.668 311.84 224.017C349.617 211.743 374.054 177.394 375.51 139.891C357.532 117.065 329.523 103.863 300.261 104.761Z" fill="white"/>
</g>
<defs>
<filter id="filter0_d" x="0" y="0.646179" width="424.154" height="409.124" filterUnits="userSpaceOnUse" color-interpolation-filters="sRGB">
<feFlood flood-opacity="0" result="BackgroundImageFix"/>
<feColorMatrix in="SourceAlpha" type="matrix" values="0 0 0 0 0 0 0 0 0 0 0 0 0 0 0 0 0 0 127 0"/>
<feOffset dy="10"/>
<feGaussianBlur stdDeviation="15"/>
<feColorMatrix type="matrix" values="0 0 0 0 0.141215 0 0 0 0 0.262315 0 0 0 0 0.691667 0 0 0 0.1 0"/>
<feBlend mode="normal" in2="BackgroundImageFix" result="effect1_dropShadow"/>
<feBlend mode="normal" in="SourceGraphic" in2="effect1_dropShadow" result="shape"/>
</filter>
</defs>
</svg>
