<svg width="136" height="252" viewBox="0 0 136 252" fill="none" xmlns="http://www.w3.org/2000/svg">
<circle cx="5" cy="185" r="5" transform="rotate(-90 5 185)" fill="white"/>
<circle cx="5" cy="165" r="5" transform="rotate(-90 5 165)" fill="white"/>
<circle cx="5" cy="145" r="5" transform="rotate(-90 5 145)" fill="white"/>
<circle cx="5" cy="125" r="5" transform="rotate(-90 5 125)" fill="white"/>
<circle cx="5" cy="105" r="5" transform="rotate(-90 5 105)" fill="white"/>
<circle cx="5" cy="85" r="5" transform="rotate(-90 5 85)" fill="white"/>
<circle cx="5" cy="65" r="5" transform="rotate(-90 5 65)" fill="white"/>
<circle cx="5" cy="45" r="5" transform="rotate(-90 5 45)" fill="white"/>
<circle cx="5" cy="25" r="5" transform="rotate(-90 5 25)" fill="white"/>
<circle cx="5" cy="5" r="5" transform="rotate(-90 5 5)" fill="white"/>
<circle cx="25" cy="185" r="5" transform="rotate(-90 25 185)" fill="white"/>
<circle cx="25" cy="165" r="5" transform="rotate(-90 25 165)" fill="white"/>
<circle cx="25" cy="145" r="5" transform="rotate(-90 25 145)" fill="white"/>
<circle cx="25" cy="125" r="5" transform="rotate(-90 25 125)" fill="white"/>
<circle cx="25" cy="105" r="5" transform="rotate(-90 25 105)" fill="white"/>
<circle cx="25" cy="85" r="5" transform="rotate(-90 25 85)" fill="white"/>
<circle cx="25" cy="65" r="5" transform="rotate(-90 25 65)" fill="white"/>
<circle cx="25" cy="45" r="5" transform="rotate(-90 25 45)" fill="white"/>
<circle cx="25" cy="25" r="5" transform="rotate(-90 25 25)" fill="white"/>
<circle cx="25" cy="5" r="5" transform="rotate(-90 25 5)" fill="white"/>
<circle cx="45" cy="185" r="5" transform="rotate(-90 45 185)" fill="white"/>
<circle cx="45" cy="165" r="5" transform="rotate(-90 45 165)" fill="white"/>
<circle cx="45" cy="145" r="5" transform="rotate(-90 45 145)" fill="white"/>
<circle cx="45" cy="125" r="5" transform="rotate(-90 45 125)" fill="white"/>
<circle cx="45" cy="105" r="5" transform="rotate(-90 45 105)" fill="white"/>
<circle cx="45" cy="85" r="5" transform="rotate(-90 45 85)" fill="white"/>
<circle cx="45" cy="65" r="5" transform="rotate(-90 45 65)" fill="white"/>
<circle cx="45" cy="45" r="5" transform="rotate(-90 45 45)" fill="white"/>
<circle cx="45" cy="25" r="5" transform="rotate(-90 45 25)" fill="white"/>
<circle cx="45" cy="5" r="5" transform="rotate(-90 45 5)" fill="white"/>
<circle cx="65" cy="185" r="5" transform="rotate(-90 65 185)" fill="white"/>
<circle cx="65" cy="165" r="5" transform="rotate(-90 65 165)" fill="white"/>
<circle cx="65" cy="145" r="5" transform="rotate(-90 65 145)" fill="white"/>
<circle cx="65" cy="125" r="5" transform="rotate(-90 65 125)" fill="white"/>
<circle cx="65" cy="105" r="5" transform="rotate(-90 65 105)" fill="white"/>
<circle cx="65" cy="85" r="5" transform="rotate(-90 65 85)" fill="white"/>
<circle cx="65" cy="65" r="5" transform="rotate(-90 65 65)" fill="white"/>
<circle cx="65" cy="45" r="5" transform="rotate(-90 65 45)" fill="white"/>
<circle cx="65" cy="25" r="5" transform="rotate(-90 65 25)" fill="white"/>
<circle cx="65" cy="5" r="5" transform="rotate(-90 65 5)" fill="white"/>
<path d="M72.6928 225.261L95.4628 227.501L82.1384 246.101L72.6928 225.261Z" fill="#3B3F45"/>
<circle cx="119" cy="173" r="17" fill="#085DDB"/>
</svg>
