<svg width="30" height="190" viewBox="0 0 30 190" fill="none" xmlns="http://www.w3.org/2000/svg">
<circle cx="5" cy="185" r="5" transform="rotate(-90 5 185)" fill="#F6FAFF"/>
<circle cx="5" cy="165" r="5" transform="rotate(-90 5 165)" fill="#F6FAFF"/>
<circle cx="5" cy="145" r="5" transform="rotate(-90 5 145)" fill="#F6FAFF"/>
<circle cx="5" cy="125" r="5" transform="rotate(-90 5 125)" fill="#F6FAFF"/>
<circle cx="5" cy="105" r="5" transform="rotate(-90 5 105)" fill="#F6FAFF"/>
<circle cx="5" cy="85" r="5" transform="rotate(-90 5 85)" fill="#F6FAFF"/>
<circle cx="5" cy="65" r="5" transform="rotate(-90 5 65)" fill="#F6FAFF"/>
<circle cx="5" cy="45" r="5" transform="rotate(-90 5 45)" fill="#F6FAFF"/>
<circle cx="5" cy="25" r="5" transform="rotate(-90 5 25)" fill="#F6FAFF"/>
<circle cx="5" cy="5" r="5" transform="rotate(-90 5 5)" fill="#F6FAFF"/>
<circle cx="25" cy="185" r="5" transform="rotate(-90 25 185)" fill="#F6FAFF"/>
<circle cx="25" cy="165" r="5" transform="rotate(-90 25 165)" fill="#F6FAFF"/>
<circle cx="25" cy="145" r="5" transform="rotate(-90 25 145)" fill="#F6FAFF"/>
<circle cx="25" cy="125" r="5" transform="rotate(-90 25 125)" fill="#F6FAFF"/>
<circle cx="25" cy="105" r="5" transform="rotate(-90 25 105)" fill="#F6FAFF"/>
<circle cx="25" cy="85" r="5" transform="rotate(-90 25 85)" fill="#F6FAFF"/>
<circle cx="25" cy="65" r="5" transform="rotate(-90 25 65)" fill="#F6FAFF"/>
<circle cx="25" cy="45" r="5" transform="rotate(-90 25 45)" fill="#F6FAFF"/>
<circle cx="25" cy="25" r="5" transform="rotate(-90 25 25)" fill="#F6FAFF"/>
<circle cx="25" cy="5" r="5" transform="rotate(-90 25 5)" fill="#F6FAFF"/>
</svg>
